<?xml version="1.0" encoding="UTF-8"?>
<svg data-bbox="0 0 220 92.236" height="92.236" width="220" xmlns="http://www.w3.org/2000/svg" data-type="ugc">
    <g>
        <path d="M0 0h220v92.236H0z" fill="none"/>
        <path d="M76.348 64.611c.484-4.738.807-8.668 1.023-11.899.215-3.177.43-7.43.646-12.707q.323-7.914.323-10.499l-.054-2.423c4.307.054 9.53.054 15.668.054 5.654 0 10.661 0 14.969-.054l-.054.915c0 .216-.054 1.023-.162 2.369l-.161 2.962c-.054.646-.054 1.292-.054 1.938-3.5-.162-6.461-.215-8.884-.215h-5.331c-.915 0-2.369.053-4.307.107l-.377 6.3c2.154.054 4.684.108 7.538.108 1.023 0 3.715-.054 8.184-.216-.161 2.369-.377 5.169-.538 8.453-3.177-.053-5.6-.053-7.269-.053-2.531 0-5.331.053-8.453.215l-.323 6.677h3.176c.916 0 2.854-.054 5.815-.108l5.654-.162c.861 0 2.261-.107 4.199-.215-.215 2.692-.376 5.546-.538 8.453-4.469-.054-9.369-.054-14.699-.054l-12.061.054zm44.581 0-.915-5.061a120 120 0 0 0-1.023-5.007l-4.469-20.514-1.615-6.946c2.315.054 4.2.054 5.6.054 1.615 0 3.499 0 5.599-.054.485 2.961.915 5.169 1.185 6.569l2.315 11.091a286 286 0 0 1 1.615 8.723l.916-3.823 3.284-12.707 2.261-9.799c2.531.054 4.631.054 6.408.054 1.884 0 4.038 0 6.353-.054l1.723 11.576 2.423 14.753 1.077-4.038.646-2.1c.215-.7.7-2.154 1.4-4.254l3.338-10.553 1.562-5.33c2.207 0 4.038.053 5.491.053 1.616 0 3.446 0 5.492-.053l-10.66 31.928-1.723 5.6c-2.746-.054-5.169-.054-7.215-.054-2.154 0-4.577 0-7.161.054l-.647-3.769-2.422-13.138c-.108-.807-.27-1.615-.323-2.423-.108-.807-.27-2.153-.431-3.876l-.969 4.253a59 59 0 0 1-.754 2.908l-4.415 16.045c-2.746-.054-5.062-.054-6.892-.054-2.1-.108-4.415-.108-7.054-.054m75.757-21.914c2.531.054 4.9.054 7.161.054 3.877 0 6.946 0 9.153-.054a280 280 0 0 0-.7 10.661 291 291 0 0 0-.43 10.446c-2.1.376-3.877.7-5.223.861q-2.1.242-5.007.485a62 62 0 0 1-5.169.215c-2.477 0-4.954-.215-7.323-.592-2.423-.377-4.523-1.077-6.461-1.939-1.884-.915-3.5-2.099-4.738-3.661a16.7 16.7 0 0 1-2.908-5.492c-.7-2.1-1.023-4.307-1.023-6.569 0-3.715.916-7.161 2.8-10.391 1.831-3.177 4.523-5.708 7.969-7.592 3.446-1.885 7.969-2.8 13.461-2.8 3.984 0 8.453.485 13.299 1.454 0 2.638.107 5.599.377 8.884a453 453 0 0 0-3.231-1.023 47 47 0 0 0-2.854-.646c-1.076-.216-2.153-.323-3.123-.431a25 25 0 0 0-2.638-.162c-1.992 0-3.93.27-5.707.862s-3.338 1.454-4.631 2.692c-1.292 1.185-2.261 2.638-2.907 4.308a14.6 14.6 0 0 0-.969 5.276c0 1.885.377 3.554 1.077 5.061.753 1.454 1.884 2.585 3.499 3.392q2.423 1.131 5.331 1.131c1.615 0 3.446-.269 5.384-.754l.269-5.922c-1.184-.054-1.884-.054-2.1-.054l-2.907.054.215-3.392c0-.377.054-.916.108-1.562-.054-.646-.054-1.615-.054-2.8" fill="#2A6BB7"/>
        <path d="M78.232 17.66a18 18 0 0 0 .162-2.207c.054-.592.054-1.4.107-2.369.054-.969.054-1.669.054-1.992v-.431h5.761v.592l-.053.539v.376c-.647-.053-1.239-.053-1.67-.053h-1.83l-.054 1.184h1.4c.215 0 .7 0 1.561-.054-.054.431-.054.969-.107 1.562h-1.4c-.485 0-1.023 0-1.616.054l-.053 1.238h1.669l1.077-.054c.161 0 .43 0 .807-.054-.054.539-.054 1.023-.107 1.616h-5.008zm6.838 0c.108-.753.162-1.615.216-2.584s.107-1.831.107-2.692h2.1l-.054.7c.108-.108.216-.216.269-.323.108-.054.162-.162.324-.216.107-.054.269-.107.376-.161.162-.054.27-.054.431-.108.162 0 .323-.054.539-.054.269 0 .484 0 .7.054s.43.108.592.215c.161.108.269.216.377.377.107.162.161.323.215.485s.054.323.054.538c0 .108 0 .431-.054.862l-.108 1.884v1.023h-2.099c.053-.323.053-.753.107-1.4.054-.592.054-1.023.054-1.292 0-.377-.054-.646-.215-.807a.7.7 0 0 0-.539-.216.69.69 0 0 0-.538.216c-.162.107-.323.323-.431.592s-.161.646-.215 1.238c-.054.593-.054 1.131-.108 1.723h-1.023c-.269-.054-.646-.054-1.077-.054m12.33-1.561c-.054.215-.107.7-.269 1.508a4 4 0 0 1-1.023.161c-.269 0-.538.054-.808.054a6.7 6.7 0 0 1-1.13-.108c-.323-.054-.646-.161-.862-.323-.269-.161-.431-.323-.646-.538-.161-.216-.269-.485-.377-.754s-.108-.592-.108-.915c0-.431.108-.862.27-1.293.161-.43.377-.753.7-.969q.404-.323.969-.484a4 4 0 0 1 1.13-.162q.566 0 1.131.162c.377.107.646.269.916.484.269.216.43.485.538.754s.161.592.161.915c0 .216 0 .431-.053.646h-3.608v.162c0 .377.108.646.377.808.269.161.592.269.969.269.216 0 .485 0 .754-.054q.323-.162.969-.323m-3.177-1.669h1.67v-.162c0-.161-.054-.323-.108-.43a.65.65 0 0 0-.269-.27 1 1 0 0 0-.377-.107c-.108 0-.216 0-.323.054-.108.053-.162.053-.269.161-.054.054-.162.108-.216.215-.054.108-.108.162-.108.216a.34.34 0 0 1 0 .323m4.308 3.23.161-2.261.054-1.292v-1.615h1.939l-.054.592.323-.323c.107-.054.161-.162.323-.216.108-.053.215-.107.377-.107.107-.054.269-.054.377-.054s.269 0 .43.054v.915l.054.808c-.215-.054-.377-.108-.538-.108-.216 0-.377.054-.539.108-.161.053-.269.161-.377.269a1.2 1.2 0 0 0-.269.431c-.054.161-.107.484-.161.861s-.054.862-.054 1.346v.646h-1.023c-.269-.054-.646-.054-1.023-.054m4.953.647c.431.161.808.269 1.185.323.323.053.646.107.861.107.162 0 .323 0 .485-.054.162-.053.269-.107.377-.161a.42.42 0 0 0 .215-.215c.054-.108.108-.162.162-.324.054-.107.054-.215.054-.376 0-.162 0-.323.054-.593-.108.108-.27.216-.324.27-.107.053-.215.161-.376.215l-.485.161c-.162.054-.323.054-.538.054a2.3 2.3 0 0 1-1.185-.323 2.5 2.5 0 0 1-.808-.861c-.161-.377-.269-.754-.269-1.185 0-.484.108-.969.269-1.346s.431-.754.808-1.023c.323-.269.7-.484 1.131-.592.43-.108.861-.162 1.4-.162.323 0 .646 0 1.023.054s.915.108 1.561.216l-.108 1.722-.107 1.885v.323l-.054 1.669c0 .216-.054.431-.054.592a2 2 0 0 1-.215.485c-.108.162-.216.269-.323.377-.162.108-.323.215-.485.269s-.377.162-.646.162c-.269.053-.539.053-.862.053h-.592c-.215 0-.484-.053-.754-.053-.269-.054-.484-.054-.646-.108-.161-.054-.431-.108-.7-.162l-.054-.7c.054 0 .054-.269 0-.699m3.554-4.469c-.215-.054-.377-.054-.592-.054q-.485 0-.808.161c-.215.108-.377.323-.538.539a1.7 1.7 0 0 0-.162.753c0 .162.054.377.108.539.054.161.161.269.323.377a.87.87 0 0 0 .484.161c.27 0 .485-.107.647-.269.215-.161.323-.431.377-.754q.16-.484.161-1.453m2.961 3.822c.054-.43.108-.753.108-1.023s.054-.592.054-1.023.054-.915.054-1.4c0-.538.054-1.13.054-1.776h2.153c-.054.646-.107 1.238-.107 1.723 0 .484-.054 1.023-.054 1.561v1.992h-1.077c-.323-.054-.7-.054-1.185-.054m.323-5.922c0-.431.054-.754.054-.969v-.27h2.046v.27l-.054.646v.323zm8.131 4.361c-.054.215-.108.7-.27 1.508a4 4 0 0 1-1.023.161c-.269 0-.538.054-.807.054-.431 0-.808-.054-1.131-.108a2.6 2.6 0 0 1-.915-.323c-.269-.161-.431-.323-.646-.538-.162-.216-.27-.485-.377-.754-.108-.269-.108-.592-.108-.915 0-.431.108-.862.269-1.293s.377-.753.7-.969q.404-.323.969-.484a4 4 0 0 1 1.131-.162q.565 0 1.131.162c.377.107.646.269.915.484.269.216.431.485.539.754.107.269.161.592.161.915 0 .216 0 .431-.054.646h-3.607v.162c0 .377.107.646.377.808.269.161.592.269.969.269.215 0 .484 0 .754-.054.215-.108.592-.215 1.023-.323m-3.177-1.669h1.669v-.162c0-.161-.054-.323-.108-.43a.64.64 0 0 0-.269-.27 1 1 0 0 0-.377-.107c-.107 0-.215 0-.323.054-.107.053-.161.053-.269.161-.054.054-.162.108-.215.215-.054.108-.108.162-.108.216.054.107 0 .215 0 .323m3.823 1.238c.054-.484.054-.969.054-1.454h2.799c-.053.431-.053.916-.053 1.454h-1.4a6 6 0 0 0-1.4 0m4.738 1.992-.162-.969c-.053-.215-.107-.538-.215-.915l-.861-3.877-.323-1.292h2.046c.107.538.161.969.215 1.238l.431 2.1c.107.431.161.969.323 1.616l.161-.7.646-2.37.431-1.83h2.369l.323 2.154.431 2.746.215-.754c.054-.108.054-.269.108-.377s.108-.377.269-.808l.646-1.992.27-1.023h2.046l-1.993 5.977-.323 1.023h-2.692l-.107-.7-.431-2.477c0-.162-.054-.323-.054-.431 0-.161-.054-.377-.054-.754l-.161.808c-.054.161-.108.377-.162.538l-.808 3.016h-1.292c-.377.053-.807.053-1.292.053m15.13-1.561c-.054.215-.108.7-.269 1.508a4 4 0 0 1-1.023.161c-.27 0-.539.054-.808.054-.431 0-.808-.054-1.131-.108a2.6 2.6 0 0 1-.915-.323c-.269-.161-.431-.323-.646-.538-.162-.216-.269-.485-.377-.754s-.108-.592-.108-.915c0-.431.108-.862.269-1.293s.377-.753.7-.969q.405-.323.97-.484a4 4 0 0 1 1.13-.162q.565 0 1.131.162c.377.107.646.269.915.484.269.216.431.485.539.754.107.269.161.592.161.915 0 .216 0 .431-.054.646h-3.607v.162c0 .377.108.646.377.808.269.161.592.269.969.269.215 0 .485 0 .754-.054.215-.108.592-.215 1.023-.323m-3.177-1.669h1.669v-.162c0-.161-.054-.323-.108-.43a.64.64 0 0 0-.269-.27 1 1 0 0 0-.377-.107c-.107 0-.215 0-.323.054-.107.053-.161.053-.269.161-.054.054-.161.108-.215.215-.054.108-.108.162-.108.216a.34.34 0 0 1 0 .323m4.254 3.23c.107-.753.161-1.615.215-2.584s.108-1.831.108-2.692h2.1l-.054.7c.107-.108.215-.216.269-.323.108-.054.161-.162.323-.216.108-.054.269-.107.377-.161.161-.054.269-.054.431-.108.161 0 .323-.054.538-.054.269 0 .485 0 .7.054s.431.108.592.215c.162.108.269.216.377.377.108.162.162.323.216.485s.053.323.053.538c0 .108 0 .431-.053.862l-.108 1.884c0 .377-.054.7-.054 1.023h-2.1c.054-.323.054-.753.108-1.4.054-.592.054-1.023.054-1.292 0-.377-.054-.646-.216-.807a.69.69 0 0 0-.538-.216.7.7 0 0 0-.539.216c-.161.107-.323.323-.43.592-.108.269-.162.646-.216 1.238-.054.593-.054 1.131-.107 1.723h-1.023c-.216-.054-.593-.054-1.023-.054m13.083 0h-1.938l.054-.646c-.108.108-.269.216-.377.323a.9.9 0 0 1-.377.216l-.484.161c-.162.054-.377.054-.539.054-.323 0-.646-.054-.915-.161a1.8 1.8 0 0 1-.754-.539 1.5 1.5 0 0 1-.431-.808 2.8 2.8 0 0 1-.161-.969c0-.484.107-.915.269-1.346.161-.43.431-.807.7-1.023.269-.269.646-.431.969-.538a4.2 4.2 0 0 1 1.185-.162c.269 0 .592 0 .969.054.054-.431.054-.969.054-1.723h2.099c-.107 1.023-.161 2.262-.269 3.715-.054 1.562-.054 2.639-.054 3.392m-1.884-3.984c-.162-.054-.377-.054-.485-.054-.323 0-.592.054-.861.216a1.16 1.16 0 0 0-.539.592 2.2 2.2 0 0 0-.161.807c0 .216.054.377.108.539.053.161.161.269.323.377a.87.87 0 0 0 .484.161c.162 0 .377-.054.539-.161.161-.108.269-.269.377-.485s.161-.431.215-.754c-.054-.269 0-.7 0-1.238m8.13 2.423c-.054.215-.108.7-.269 1.508a4 4 0 0 1-1.023.161c-.269 0-.539.054-.808.054a6.7 6.7 0 0 1-1.13-.108c-.323-.054-.647-.161-.862-.323-.269-.161-.431-.323-.646-.538-.162-.216-.269-.485-.377-.754s-.108-.592-.108-.915c0-.431.108-.862.27-1.293.161-.43.377-.753.7-.969q.404-.323.969-.484a4 4 0 0 1 1.13-.162q.565 0 1.131.162c.377.107.646.269.915.484.27.216.431.485.539.754s.161.592.161.915c0 .216 0 .431-.053.646h-3.608v.162c0 .377.108.646.377.808.269.161.592.269.969.269.216 0 .485 0 .754-.054.162-.108.538-.215.969-.323m-3.177-1.669h1.67v-.162c0-.161-.054-.323-.108-.43a.65.65 0 0 0-.269-.27 1 1 0 0 0-.377-.107c-.108 0-.216 0-.323.054-.108.053-.162.053-.27.161-.053.054-.161.108-.215.215-.054.108-.108.162-.108.216.054.107 0 .215 0 .323m3.823 1.238c.054-.484.054-.969.054-1.454h2.8c-.054.431-.054.916-.054 1.454h-1.4c-.431 0-.915-.054-1.4 0m7.484-2.1h3.069a45 45 0 0 0-.161 1.993c-.054.861-.054 1.507-.108 1.938q-.565.081-.969.161c-.269.054-.592.054-.915.108-.377 0-.7.054-.969.054-.485 0-.916-.054-1.4-.108a3.8 3.8 0 0 1-1.185-.377 1.84 1.84 0 0 1-.861-.7 3.1 3.1 0 0 1-.539-1.023c-.108-.377-.215-.807-.215-1.238 0-.7.161-1.346.538-1.938.323-.593.862-1.077 1.508-1.4s1.507-.539 2.53-.539c.754 0 1.562.108 2.477.27 0 .484 0 1.076.054 1.669-.269-.108-.431-.162-.592-.216a1.6 1.6 0 0 0-.539-.107c-.215-.054-.377-.054-.592-.108h-.484c-.377 0-.754.054-1.077.161s-.646.27-.862.485c-.269.215-.431.485-.538.808a3 3 0 0 0-.162.969c0 .377.054.646.216.969q.241.404.646.646c.323.162.646.215 1.023.215.323 0 .646-.053 1.023-.107l.054-1.131h-.916l.054-.646v-.269c-.108-.162-.108-.323-.108-.539m4.523.323c.054-.323.108-.592.108-.7s.054-.323.108-.592q1.453-.323 2.584-.323.647 0 1.131.162c.323.107.592.215.807.43.216.216.27.485.27.862 0 .215-.054.646-.108 1.292a87 87 0 0 0-.162 2.638h-2.046c.054-.376.108-1.184.216-2.369-.108.054-.216.108-.323.108-.054.054-.216.054-.377.108a1.8 1.8 0 0 0-.431.161 1.2 1.2 0 0 0-.269.162l-.162.161c-.054.054-.054.108-.054.216q0 .16.162.323c.108.107.215.107.431.107h.215c.108 0 .215-.053.323-.107a8 8 0 0 0-.323 1.13c-.269.054-.592.054-.861.054-.431 0-.808-.054-1.077-.161-.27-.108-.485-.323-.646-.593a1.5 1.5 0 0 1-.216-.807c0-.162.054-.323.108-.485s.161-.323.269-.431c.108-.161.269-.269.431-.376.161-.108.377-.216.646-.27.269-.107.646-.161 1.077-.269.161-.054.323-.054.484-.108.162-.053.27-.053.323-.107.054-.054.108-.054.162-.108l.108-.108v-.107q0-.162-.162-.323a1.1 1.1 0 0 0-.484-.108c-.647.054-1.4.215-2.262.538m5.923 3.769.161-2.261.054-1.292v-1.615h1.939l-.054.592.323-.323c.107-.054.161-.162.323-.216.108-.053.215-.107.377-.107.107-.054.269-.054.377-.054s.269 0 .43.054v.915l.054.808c-.215-.054-.377-.108-.538-.108-.216 0-.377.054-.539.108-.161.053-.269.161-.377.269a1.2 1.2 0 0 0-.269.431c-.054.161-.107.484-.161.861s-.054.862-.054 1.346v.646h-1.023c-.323-.054-.646-.054-1.023-.054m8.938-1.615c0 .162-.054.377-.108.754l-.108.808c-.538.107-1.076.215-1.561.215-.377 0-.7-.054-.969-.108a3 3 0 0 1-.916-.484 1.77 1.77 0 0 1-.592-.808c-.161-.377-.215-.808-.215-1.238 0-.431.054-.808.215-1.239q.243-.566.646-.969c.403-.403.593-.431.916-.538s.7-.108 1.13-.108c.27 0 .485 0 .754.054.269 0 .539.054.915.161v.485c0 .108 0 .323.054.592l.054.431c-.484-.162-.915-.269-1.292-.269-.269 0-.485.054-.7.161s-.377.269-.431.431a1.5 1.5 0 0 0-.161.7c0 .269.054.485.107.646.108.162.216.323.431.431s.377.107.646.107c.108 0 .269 0 .431-.053.161 0 .323-.054.431-.054-.054 0 .107-.054.323-.108m.915 1.615c.054-.538.108-.915.108-1.238q.08-1.05.161-2.423c.054-.592.054-1.184.054-1.723v-1.615h2.1l-.108 1.238c0 .216-.054.646-.107 1.239.107-.162.215-.27.269-.323.054-.054.161-.108.215-.216.108-.054.162-.108.269-.161s.216-.054.323-.108.27-.054.377-.054h.431c.269 0 .592.054.862.108.269.054.484.161.7.323.215.161.323.323.376.538.054.216.108.431.108.646v.377c0 .162 0 .323-.054.593l-.107 1.723v1.076h-2.154c.054-.43.108-.969.161-1.561s.054-1.023.054-1.346-.054-.539-.215-.646c-.162-.108-.323-.216-.539-.216-.215 0-.376.054-.538.108-.161.054-.269.162-.377.323-.108.108-.161.323-.215.539q-.081.404-.162 1.292c0 .323-.054.807-.054 1.454h-.969c-.161.053-.538.053-.969.053m7.161 0c.054-.43.108-.753.108-1.023s.054-.592.054-1.023.054-.915.054-1.4c0-.538.053-1.13.053-1.776h2.154c-.054.646-.108 1.238-.108 1.723 0 .484-.053 1.023-.053 1.561v1.992h-1.077c-.323-.054-.7-.054-1.185-.054m.323-5.922c0-.431.054-.754.054-.969v-.27h2.046v.27l-.054.646v.323zm2.962 5.922c.107-.753.161-1.615.215-2.584s.108-1.831.108-2.692h2.099l-.053.7c.107-.108.215-.216.269-.323.108-.054.161-.162.323-.216.108-.054.269-.107.377-.161.161-.054.269-.054.431-.108.161 0 .323-.054.538-.054.269 0 .485 0 .7.054s.431.108.592.215c.162.108.269.216.377.377.108.162.162.323.215.485.054.162.054.323.054.538 0 .108 0 .431-.054.862l-.107 1.884v1.023h-2.1c.054-.323.054-.753.108-1.4.053-.592.053-1.023.053-1.292 0-.377-.053-.646-.215-.807a.69.69 0 0 0-.538-.216.7.7 0 0 0-.539.216c-.161.107-.323.323-.431.592s-.161.646-.215 1.238c-.054.593-.054 1.131-.108 1.723h-1.023c-.323-.054-.7-.054-1.076-.054m7.645.647c.431.161.808.269 1.185.323.323.053.646.107.861.107.162 0 .323 0 .485-.054.161-.053.269-.107.377-.161a.43.43 0 0 0 .215-.215c.054-.108.108-.162.162-.324.053-.107.053-.215.053-.376 0-.162 0-.323.054-.593-.107.108-.269.216-.323.27-.107.053-.215.161-.377.215l-.484.161c-.162.054-.323.054-.539.054a2.3 2.3 0 0 1-1.184-.323c-.377-.215-.592-.484-.808-.861-.161-.377-.269-.754-.269-1.185 0-.484.108-.969.269-1.346s.431-.754.808-1.023c.323-.269.7-.484 1.131-.592.43-.108.861-.162 1.399-.162.323 0 .647 0 1.023.054.377.054.916.108 1.562.216l-.108 1.722-.107 1.885v.323l-.054 1.669c0 .216-.054.431-.054.592a2 2 0 0 1-.216.485c-.107.162-.215.269-.323.377-.161.108-.323.215-.484.269-.162.054-.377.162-.646.162-.27.053-.539.053-.862.053h-.592c-.215 0-.485-.053-.754-.053-.269-.054-.484-.054-.646-.108-.161-.054-.431-.108-.7-.162l-.054-.7c.054 0 0-.269 0-.699m3.5-4.469c-.215-.054-.377-.054-.592-.054q-.485 0-.808.161c-.215.108-.377.323-.538.539a1.7 1.7 0 0 0-.162.753c0 .162.054.377.108.539.054.161.161.269.323.377a.87.87 0 0 0 .484.161c.27 0 .485-.107.647-.269.215-.161.323-.431.376-.754q.162-.484.162-1.453" fill="#2A6BB7"/>
        <path fill="#A0C53B" d="M19.274 39.467C19.328 11.415 95.3 0 95.3 0S4.198 8.507.106 43.074C-4.201 80.01 123.137 106.985 220 83.348 71.125 82.972 19.274 55.512 19.274 39.467"/>
    </g>
</svg>
