<?xml version="1.0" encoding="UTF-8"?>
<svg data-bbox="83.333 16.642 791.876 157.613" xmlns="http://www.w3.org/2000/svg" viewBox="0 0 959 192" fill-rule="evenodd" clip-rule="evenodd" stroke-linejoin="round" stroke-miterlimit="2" data-type="ugc">
    <g>
        <path d="M83.333 31.206c25-7.5 50.417-12.083 76.25-14.166 30.833-1.667 54.583 2.083 68.333 7.916S255.833 39.54 282.5 42.873a232 232 0 0 0 67.917-1.25c17.916-3.333 20.833-3.75 20.833-3.75q-36.875 11.875-75 17.5c-20.834 3.333-42.084 2.083-62.5-2.917-14.584-4.166-32.5-15-59.167-17.916-17.917-2.084-36.25-3.334-54.167-3.334z" fill="#00acc1" fill-rule="nonzero"/>
        <path d="M83.333 83.76c25-7.5 50.417-12.083 76.25-14.166 30.833-1.667 54.583 2.083 68.333 7.916s27.917 14.584 54.584 17.917a232 232 0 0 0 67.917-1.25c17.916-3.333 20.833-3.75 20.833-3.75q-36.875 11.875-75 17.5c-20.834 3.333-42.084 2.083-62.5-2.917-14.584-4.166-32.5-15-59.167-17.916-17.917-2.084-36.25-3.334-54.167-3.334z" fill="#ff561c" fill-rule="nonzero"/>
        <path d="M83.333 136.314c25-7.5 50.417-12.083 76.25-14.166 30.833-1.667 54.583 2.083 68.333 7.916s27.917 14.584 54.584 17.917a232 232 0 0 0 67.917-1.25c17.916-3.333 20.833-3.75 20.833-3.75q-36.875 11.875-75 17.5c-20.834 3.333-42.084 2.083-62.5-2.917-14.584-4.166-32.5-15-59.167-17.916-17.917-2.084-36.25-3.334-54.167-3.334z" fill="#67c148" fill-rule="nonzero"/>
        <path d="m423.504 31.323-5.417 5.834c-2.917-2.5-6.25-3.75-10.417-3.75-2.5 0-5 .833-7.083 2.5-3.333 3.333-4.167 8.333-4.167 15.833 0 7.083 1.25 11.667 3.75 14.167 2.084 2.083 5 2.916 7.5 2.916 2.084 0 3.75-.416 5.417-1.25V55.907h-7.083l-1.25-7.917h18.75v23.333c-5 2.917-10.417 4.584-16.25 4.167-6.667.417-12.917-2.5-16.667-7.5-3.333-4.583-5.417-10.417-5-16.667 0-10.416 3.333-17.5 10.417-22.083 3.333-2.5 7.5-3.75 11.666-3.75 5.834 0 11.25 2.083 15.834 5.833" fill-rule="nonzero"/>
        <path d="m456.753 65.552 3.75 5.834c-3.75 3.333-8.75 5-13.75 5-10.416 0-17.083-7.5-17.083-18.75-.417-5 1.25-10.417 4.583-14.167 2.917-3.333 7.084-5 11.25-5 3.75 0 7.5 1.25 10.417 3.75 3.75 4.583 5.417 10 5 15.833v2.084h-20.833v.416c0 5.417 2.916 8.75 7.5 8.75 3.333 0 6.666-1.25 9.166-3.75M440.087 53.47h10.833v-.417c0-2.083-.417-3.75-1.25-5.416-.833-1.25-2.5-2.084-4.167-2.084-3.333 0-5.416 2.5-5.416 7.917" fill-rule="nonzero"/>
        <path d="m467.617 41.04 8.333-2.5q1.25 1.875 1.25 3.75c2.5-2.5 5.834-3.75 9.167-3.75 2.917 0 5.417.833 7.5 2.917.417.416.833 1.25 1.25 1.666 2.5-2.916 6.25-4.583 10-4.583 2.5 0 5 .833 7.083 2.083 2.084 1.667 2.5 3.75 2.5 8.75v25.834h-8.75v-23.75c0-4.167-.416-5-2.916-5s-4.584 1.25-6.25 2.916v25.834h-9.167V51.873c0-4.583-.833-5.416-3.333-5.416s-4.584 1.25-6.25 2.916v26.25h-9.167v-25c.417-3.75 0-6.666-1.25-9.583" fill-rule="nonzero"/>
        <path d="m549.925 65.552 3.75 5.834c-3.75 3.333-8.75 5-13.75 5-10.416 0-17.083-7.5-17.083-18.75-.417-5 1.25-10.417 4.583-14.167 2.917-3.333 7.084-5 11.25-5 3.75 0 7.5 1.25 10.417 3.75 3.75 4.583 5.417 10 5 15.833v2.084h-20.833v.416c0 5.417 2.916 8.75 7.5 8.75 3.333 0 6.666-1.25 9.166-3.75M533.26 53.47h10.833v-.417c0-2.083-.417-3.75-1.25-5.416-.833-1.25-2.5-2.084-4.167-2.084-3.333 0-5.416 2.5-5.416 7.917" fill-rule="nonzero"/>
        <path d="M566.196 23.373c3.334 0 5.834 2.5 5.834 5.833s-2.5 5.834-5.834 5.834-5.833-2.5-5.833-5.834 2.5-5.833 5.833-5.833m-4.583 16.25 9.583-1.667V75.04h-9.583z" fill-rule="nonzero"/>
        <path d="m579.62 40.752 8.333-2.5c.834 1.25 1.25 2.917 1.25 4.583 1.25-.833 2.917-2.083 4.167-2.5 2.083-.833 4.167-1.666 6.667-1.666 3.75-.417 7.083 1.666 8.75 5 .416 1.666.833 3.333.833 5v26.25h-9.583V52.002c0-4.167-.834-5.417-3.334-5.417-2.5.417-4.583 1.25-6.25 3.334v25.416h-9.583v-26.25c0-2.916-.417-5.833-1.25-8.333" fill-rule="nonzero"/>
        <path d="M648.891 24.757v37.5c-.416 4.583 0 8.75 1.25 13.333h-8.333c-.417-.833-.417-1.25-.417-2.083-2.5 2.083-5.416 2.916-8.333 2.916-9.167-.416-15-7.5-15-18.75s6.25-19.166 15.417-19.166c2.5 0 4.583.416 6.25 2.083 0-1.667-.417-3.75-.417-5.417V23.09zm-9.166 23.75c-1.25-1.25-3.334-2.084-5-2.084-4.167 0-6.25 3.334-6.25 11.667 0 7.917 1.666 10.417 6.666 10.417 1.667 0 3.334-.834 4.584-2.5z" fill-rule="nonzero"/>
        <path d="m684.566 65.552 3.75 5.834c-3.75 3.333-8.75 5-13.75 5-10.416 0-17.083-7.5-17.083-18.75-.417-5 1.25-10.417 4.583-14.167 2.917-3.333 7.084-5 11.25-5 3.75 0 7.5 1.25 10.417 3.75 3.75 4.583 5.417 10 5 15.833v2.084H667.9v.416c0 5.417 2.916 8.75 7.5 8.75 3.333 0 6.666-1.25 9.166-3.75M667.9 53.47h10.833v-.417c0-2.083-.417-3.75-1.25-5.416-.833-1.25-2.5-2.084-4.167-2.084-3.333 0-5.416 2.5-5.416 7.917" fill-rule="nonzero"/>
        <path d="m692.608 40.14 9.583-1.25 2.917 13.75c.833 4.167 2.083 11.25 2.083 11.25.417-4.167 1.667-8.333 2.5-12.5l3.334-12.083h8.75l2.916 11.666a315 315 0 0 1 2.917 12.917c.417-1.667.833-7.083 2.083-11.667l2.917-12.916h9.583L731.775 75.14h-8.75l-3.334-12.5c-.833-2.5-1.666-6.25-2.083-8.333s-.417-2.5-.417-3.75c0 1.666-.416 2.916-.833 4.583-1.667 5.833-3.333 12.5-3.333 12.917l-1.667 7.083h-8.75z" fill-rule="nonzero"/>
        <path d="m772.73 65.552 3.75 5.834c-3.75 3.333-8.75 5-13.75 5-10.417 0-17.084-7.5-17.084-18.75-.417-5 1.25-10.417 4.583-14.167 2.917-3.333 7.084-5 11.25-5 3.75 0 7.5 1.25 10.417 3.75 3.75 4.583 5.417 10 5 15.833v2.084h-20.833v.416c0 5.417 2.916 8.75 7.5 8.75 3.333 0 6.666-1.25 9.166-3.75M756.063 53.47h10.833v-.417c0-2.083-.417-3.75-1.25-5.416-.833-1.25-2.5-2.084-4.167-2.084-3.333 0-5.416 2.5-5.416 7.917" fill-rule="nonzero"/>
        <path d="m783.663 40.406 8.333-2.083c.834 1.667 1.25 3.333 1.667 5 1.25-2.083 3.333-3.333 5.417-4.583.833-.417 2.083-.417 2.916-.417 1.25 0 2.5.417 3.75.833l-2.5 8.334c-1.25-.417-2.083-.834-2.916-.834a7.29 7.29 0 0 0-5.834 2.917V74.99h-9.583V51.24c.417-3.75-.417-7.084-1.25-10.834" fill-rule="nonzero"/>
        <path d="m808.842 25.381 9.583-2.5c.417 3.75.834 7.917.417 11.667V75.38h-9.167V34.548c0-2.917-.416-6.25-.833-9.167m19.583 13.75h11.25l-11.25 15 14.167 20.833h-11.25l-12.083-20z" fill-rule="nonzero"/>
        <path d="m870.98 65.552 3.75 5.834c-3.75 3.333-8.75 5-13.75 5-10.417 0-17.084-7.5-17.084-18.75-.417-5 1.25-10.417 4.583-14.167 2.917-3.333 7.084-5 11.25-5 3.75 0 7.5 1.25 10.417 3.75 3.75 4.583 5.417 10 5 15.833v2.084h-20.833v.416c0 5.417 2.916 8.75 7.5 8.75 3.333 0 6.666-1.25 9.166-3.75M854.313 53.47h10.833v-.417c0-2.083-.417-3.75-1.25-5.416-.833-1.25-2.5-2.084-4.167-2.084-3.333 0-5.416 2.5-5.416 7.917" fill-rule="nonzero"/>
        <path d="M406.77 111.01c12.917 0 21.25 9.583 21.25 25 0 11.25-3.75 19.167-10.833 23.333-3.334 1.667-6.667 2.084-10 2.084-6.25.416-12.084-2.084-15.834-7.084-4.166-5-6.25-11.666-5.833-17.916 0-10.417 4.167-19.167 11.25-22.917q4.375-2.5 10-2.5m0 7.5c-3.333 0-6.25 1.667-7.5 4.167-2.083 4.583-2.917 9.166-2.917 13.75 0 8.333 1.667 13.75 4.167 15.833 1.667 1.25 3.75 1.667 5.833 1.667 7.084 0 10-5.417 10-17.917q0-5.625-1.25-11.25c-1.25-3.75-4.583-6.25-8.333-6.25" fill-rule="nonzero"/>
        <path d="M444.892 108.402c.417 2.083.417 4.167.417 6.25v11.667c2.083-2.084 5-2.917 7.5-2.917 8.75 0 14.166 7.083 14.166 18.333.417 6.25-2.083 12.5-6.666 16.667-2.084 1.667-5 2.917-7.917 2.917s-5.833-1.25-7.917-3.334c0 .834-.416 1.667-.833 2.5h-8.75c.833-2.5 1.25-5 .833-7.5v-33.333c0-2.917 0-5.833-.833-8.75zm.417 25.833v16.667c1.25 1.25 3.333 2.5 5.416 2.5s3.75-.833 4.584-2.917c.833-2.5 1.25-5.416 1.25-8.333 0-2.083 0-4.167-.417-6.25-.417-2.5-2.917-4.583-5.417-4.583-2.083.416-4.166 1.25-5.416 2.916" fill-rule="nonzero"/>
        <path d="m500.483 150.931 3.75 5.834c-3.75 3.333-8.75 5-13.75 5-10.416 0-17.083-7.5-17.083-18.75-.417-5 1.25-10.417 4.583-14.167 2.917-3.333 7.084-5 11.25-5 3.75 0 7.5 1.25 10.417 3.75 3.75 4.583 5.417 10 5 15.833v2.084h-20.833v.416c0 5.417 2.916 8.75 7.5 8.75 3.333 0 6.666-1.25 9.166-3.75m-16.666-12.083h10.833v-.417c0-2.083-.417-3.75-1.25-5.416-.833-1.25-2.5-2.084-4.167-2.084-3.333 0-5.416 2.5-5.416 7.917" fill-rule="nonzero"/>
        <path d="m511.204 125.79 8.333-2.084c.834 1.667 1.25 3.333 1.667 5 1.25-2.083 3.333-3.333 5.417-4.583.833-.417 2.083-.417 2.916-.417 1.25 0 2.5.417 3.75.833l-2.5 8.334c-1.25-.417-2.083-.834-2.916-.834a7.29 7.29 0 0 0-5.834 2.917v25.417h-9.583v-23.75c.417-3.75-.417-7.084-1.25-10.834" fill-rule="nonzero"/>
        <path d="m536.383 110.485 9.583-2.083c.417 2.917.834 5.833.834 8.75v10c2.5-2.083 6.25-3.75 10-3.75s7.5 1.667 9.166 5.417c.834 2.083 1.25 4.583.834 6.666v25.417h-9.167v-24.583c0-3.75-.833-5-3.75-5-2.5.416-5 1.666-7.083 3.333v25.833h-9.584V118.82c0-2.5-.416-5.417-.833-8.334" fill-rule="nonzero"/>
        <path d="M575.796 128.777c1.667-1.25 3.75-2.083 5.834-2.917 2.916-1.25 6.25-2.083 10-2.083 6.25 0 10.416 2.083 11.666 6.25.417 2.083.834 4.167.417 6.667v12.916c-.833 2.5.833 5.417 3.333 7.084l-5 5.833c-2.083-.833-4.166-2.5-5.416-4.583-.417.833-1.25 1.666-2.084 2.083-2.083 1.25-4.583 2.083-7.083 2.083-7.917 0-12.5-4.166-12.5-11.25q0-12.5 17.5-12.5h2.083v-1.666c0-4.167-.833-5.417-4.166-5.417-3.75.417-7.5 1.667-10.417 4.167zm18.334 16.25c-6.667 0-9.167.833-9.167 5.417 0 2.083 1.667 4.166 3.75 4.583h.417q3.125 0 5-2.5z" fill-rule="nonzero"/>
        <path d="m638.583 127.665-4.583 6.25c-1.667-1.667-3.75-2.5-5.833-2.917-4.167 0-6.25 3.75-6.25 12.083-.417 3.334.416 6.25 1.666 9.167.834 1.25 2.5 2.083 4.167 2.083 2.5 0 4.583-1.25 6.667-2.916l.416-.417 4.167 5.833c-.417.834-1.667 1.667-2.917 2.5-2.916 1.667-5.833 2.084-8.75 2.084-10 0-15.833-6.667-15.833-18.334-.417-6.666 2.083-12.916 7.5-16.666 2.5-2.084 5.833-2.917 8.75-2.917 2.5 0 5 .417 7.083 1.667z" fill-rule="nonzero"/>
        <path d="m644.083 110.485 9.583-2.083c.417 2.917.834 5.833.834 8.75v10c2.5-2.083 6.25-3.75 10-3.75s7.5 1.667 9.166 5.417c.834 2.083 1.25 4.583.834 6.666v25.417h-9.167v-24.583c0-3.75-.833-5-3.75-5-2.5.416-5 1.666-7.083 3.333v25.833h-9.584V118.82c0-2.5-.416-5.417-.833-8.334" fill-rule="nonzero"/>
        <path d="M689.271 108.756c3.334 0 5.834 2.5 5.834 5.833s-2.5 5.834-5.834 5.834-5.833-2.5-5.833-5.834 2.5-5.833 5.833-5.833m-4.583 16.25 9.583-1.667v37.084h-9.583z" fill-rule="nonzero"/>
        <path d="m702.483 126.136 8.333-2.5c.834 1.25 1.25 2.917 1.25 4.583 1.25-.833 2.917-2.083 4.167-2.5 2.083-.833 4.167-1.666 6.667-1.666 3.75-.417 7.083 1.666 8.75 5 .416 1.666.833 3.333.833 5v26.25H722.9v-22.917c0-4.167-.834-5.417-3.334-5.417-2.5.417-4.583 1.25-6.25 3.334v25.416h-9.583v-26.25c0-2.916-.417-5.833-1.25-8.333" fill-rule="nonzero"/>
        <path d="m774.304 122.51 3.75 5.833c-1.666 1.667-4.166 2.917-6.666 2.5-.834 0-1.667 0-2.5-.416 1.25 1.666 2.083 3.75 2.083 5.833.417 6.667-5.417 11.25-12.917 11.25h-1.666c-2.084 1.25-3.75 2.083-3.75 2.917 0 .416.416.833 1.666.833h5c3.75-.417 7.917.833 10.834 3.333 2.083 2.084 3.333 5 2.916 7.5 0 2.917-.833 5.417-2.916 7.5-3.75 3.334-9.167 5-14.167 4.584q-7.5.625-13.75-3.75c-1.25-1.25-2.5-3.75-2.5-6.25 0-1.25.417-2.5.833-3.75h8.75c-.416.833-.416 1.666-.416 2.5 0 2.916 2.5 4.583 6.666 4.583 2.084 0 4.167-.417 5.834-1.25 1.25-.833 2.083-2.083 2.083-3.75 0-1.25-.417-2.5-1.667-3.333s-2.916-1.25-4.583-1.25h-4.167q-4.375 0-8.75-1.25c-.416 0-1.25-.834-1.666-1.667s-.834-1.667-.834-2.917.417-2.5 1.25-3.333c1.25-1.25 3.334-2.083 5.417-2.5-4.583-.833-8.333-5-7.917-10 0-7.5 5.834-12.083 15.417-12.083 2.083 0 4.583.416 6.667.833 1.25.417 2.916.833 4.583.833 2.5-.416 5-1.25 7.083-3.333m-18.333 8.333c-2.917-.416-5.417 1.667-5.833 4.167v.833c0 3.75 2.083 5 5.416 5 3.75 0 5.834-1.666 5.834-5 .416-2.5-1.667-5-4.584-5z" fill-rule="nonzero"/>
    </g>
</svg>
